<svg xmlns="http://www.w3.org/2000/svg" viewBox="0 0 80 64.56"><defs><style>.cls-1{fill:#f2eacc;}.cls-2{fill:#9c6525;}.cls-3{fill:#fee801;}.cls-4{fill:#e5c900;}.cls-5{fill:#f5f5f5;}.cls-6{fill:#42ade2;}</style></defs><g id="Calque_2" data-name="Calque 2"><g id="Calque_1-2" data-name="Calque 1"><path class="cls-1" d="M20.54,44.92C29.19,56.54,43,46.39,34.3,34.77,18.58,20.72,19,.69,13,0,5.56-.81,0,19.89,20.54,44.92Z"/><path class="cls-2" d="M75.39,43.13,80,46.79a36.15,36.15,0,0,1-3.84,4.72,37.49,37.49,0,0,1-6.56-6.18A33.45,33.45,0,0,0,75.39,43.13Z"/><path class="cls-3" d="M37.05,17.54a17.57,17.57,0,0,1,15.84,4c-9.06-4.51-22.46,5.74-20.51,9A33.1,33.1,0,0,0,66.64,46c1-.18,2-.43,3-.7a37.14,37.14,0,0,0,6.56,6.18c-18.77,8.72-41.25,3.57-50.77-14C21.51,30.36,28.92,19.47,37.05,17.54Z"/><path class="cls-4" d="M0,46.18s1.83-7.12,10.91-10.47c8.84-3.26,14.47,1.81,14.47,1.81a34.77,34.77,0,0,0,36,16.25,34.52,34.52,0,0,0,12-4.58c.94.83,1.91,1.62,2.83,2.32a36.52,36.52,0,0,1-52.32.32C11.28,37.09,0,46.18,0,46.18Z"/><path class="cls-5" d="M36.6,43.6c-3.9-2.28-5.88-6.11-4.44-8.55a3.82,3.82,0,0,1,2.19-1.6c.24.32.47.63.72.93a3.06,3.06,0,0,0-1.62,1.25c-1.17,2,.44,5.09,3.61,6.94s6.47,1.74,7.74-.09c.5.27,1,.53,1.51.78l0,.05C44.83,45.75,40.5,45.88,36.6,43.6Z"/><path class="cls-6" d="M44.8,42.48c-1.27,1.83-4.66,1.89-7.74.09s-4.78-5-3.61-6.94a3.06,3.06,0,0,1,1.62-1.25A33,33,0,0,0,44.8,42.48Z"/><path class="cls-3" d="M0,46.18c-.29,6.57,4.9,17,13.77,18.33S2.54,39.89,15.93,34.64C15.93,34.64.53,34.62,0,46.18Z"/><path class="cls-4" d="M34.77,18.32C54.58,10.73,61.27,34,51.39,31.25,47.8,30.25,45.76,23.39,34.77,18.32Z"/></g></g></svg>