<svg xmlns="http://www.w3.org/2000/svg" viewBox="0 0 80 80"><defs><style>.cls-1{fill:#9e7658;}.cls-2{fill:#89664c;}.cls-3{fill:#b2d921;}.cls-4{fill:#c7e755;}.cls-5{fill:#ecffad;}.cls-6{fill:#3e4347;}</style></defs><g id="Calque_2" data-name="Calque 2"><g id="Calque_1-2" data-name="Calque 1"><path class="cls-1" d="M47.54,80c-63.39,0-63.39-80,0-80Z"/><ellipse class="cls-2" cx="47.54" cy="40" rx="32.46" ry="40"/><ellipse class="cls-3" cx="47.54" cy="40" rx="30.57" ry="37.68"/><ellipse class="cls-4" cx="47.54" cy="40" rx="26.73" ry="32.94"/><path class="cls-3" d="M68.54,47c-.41,1.9-8.21,0-9,1.6S64,57.7,62.87,59s-7.07-5.11-8.41-4.16.15,10.56-1.35,11.05-4-8.77-5.62-8.78-4.12,9.25-5.66,8.73,0-10.12-1.29-11.06-7.36,5.42-8.45,4.07,4.15-8.71,3.38-10.37-8.57.2-9-1.67,7.12-5,7.13-6.91-7.5-5.08-7.08-7,8.21,0,9-1.59S31.11,22.3,32.21,21s7.07,5.11,8.42,4.16S40.47,14.56,42,14.06s4,8.78,5.61,8.79,4.12-9.25,5.66-8.73,0,10.12,1.29,11.06S61.91,19.76,63,21.1s-4.15,8.72-3.37,10.38,8.57-.2,9,1.67-7.12,5-7.13,6.91S69,45.13,68.54,47Z"/><polygon class="cls-5" points="65.3 40 54.55 42.32 62.92 50.95 52.67 46.32 56.42 58.94 49.42 48.63 47.54 61.88 45.66 48.63 38.66 58.94 42.42 46.32 32.17 50.94 40.53 42.32 29.79 40 40.53 37.68 32.17 29.05 42.41 33.68 38.66 21.05 45.66 31.37 47.54 18.12 49.42 31.37 56.42 21.05 52.67 33.68 62.92 29.06 54.55 37.68 65.3 40"/><polygon class="cls-6" points="43.87 20.51 43.28 23.73 45.02 26.25 45.61 23.03 43.87 20.51"/><polygon class="cls-6" points="40.48 16.01 39.89 19.23 41.62 21.75 42.22 18.53 40.48 16.01"/><polygon class="cls-6" points="52.53 19.81 50.26 21.57 50.04 24.87 52.31 23.11 52.53 19.81"/><polygon class="cls-6" points="51.21 59.49 51.8 56.26 50.07 53.75 49.48 56.97 51.21 59.49"/><polygon class="cls-6" points="54.6 63.99 55.2 60.77 53.46 58.25 52.86 61.47 54.6 63.99"/><polygon class="cls-6" points="42.56 60.19 44.83 58.43 45.04 55.13 42.78 56.89 42.56 60.19"/><polygon class="cls-6" points="63.36 35.48 60.74 34.74 58.7 36.88 61.31 37.62 63.36 35.48"/><polygon class="cls-6" points="67.01 31.3 64.39 30.57 62.35 32.71 64.97 33.44 67.01 31.3"/><polygon class="cls-6" points="63.92 46.14 62.49 43.34 59.82 43.08 61.25 45.87 63.92 46.14"/><polygon class="cls-6" points="31.73 44.52 34.34 45.25 36.38 43.11 33.77 42.38 31.73 44.52"/><polygon class="cls-6" points="28.07 48.7 30.69 49.43 32.73 47.29 30.12 46.56 28.07 48.7"/><polygon class="cls-6" points="31.16 33.86 32.59 36.65 35.26 36.92 33.83 34.13 31.16 33.86"/><polygon class="cls-6" points="60.22 27.5 57.6 28.23 56.51 31.25 59.13 30.52 60.22 27.5"/><polygon class="cls-6" points="62.05 21.78 59.44 22.52 58.34 25.54 60.96 24.8 62.05 21.78"/><polygon class="cls-6" points="33.03 58.21 35.65 57.48 36.74 54.46 34.13 55.19 33.03 58.21"/><polygon class="cls-6" points="37.4 24.38 37.99 27.6 40.44 28.95 39.85 25.73 37.4 24.38"/><polygon class="cls-6" points="32.76 22.12 33.36 25.34 35.81 26.69 35.21 23.47 32.76 22.12"/><polygon class="cls-6" points="62.32 57.88 61.72 54.65 59.28 53.3 59.87 56.53 62.32 57.88"/></g></g></svg>